<?xml version="1.0" encoding="utf-8"?>
<!-- Generator: Adobe Illustrator 25.0.1, SVG Export Plug-In . SVG Version: 6.00 Build 0)  -->
<svg version="1.0" id="katman_1" xmlns="http://www.w3.org/2000/svg" xmlns:xlink="http://www.w3.org/1999/xlink" x="0px" y="0px"
	 viewBox="0 0 560 400" style="enable-background:new 0 0 560 400;" xml:space="preserve">
<style type="text/css">
	.st0{fill:#A6A6A6;}
	.st1{fill:#FFFFFF;}
</style>
<g>
	<g>
		<g>
			<path class="st0" d="M452.9,131.3H107.1c-1.3,0-2.5,0-3.8,0c-1.1,0-2.1,0-3.2,0c-2.3,0-4.6,0.2-6.9,0.6c-2.3,0.4-4.5,1.1-6.5,2.2
				c-2.1,1.1-3.9,2.4-5.6,4.1c-1.6,1.6-3,3.5-4.1,5.6c-1,2.1-1.8,4.3-2.1,6.5c-0.4,2.3-0.6,4.6-0.6,6.9c0,1.1,0,2.1-0.1,3.2v79.5
				c0,1.1,0,2.1,0.1,3.2c0,2.3,0.2,4.6,0.6,6.9c0.4,2.3,1.1,4.5,2.1,6.5c1,2.1,2.4,3.9,4.1,5.5c1.6,1.6,3.5,3,5.6,4.1
				c2.1,1,4.3,1.8,6.5,2.2c2.3,0.4,4.6,0.6,6.9,0.6c1.1,0,2.1,0,3.2,0c1.3,0,2.5,0,3.8,0h345.8c1.2,0,2.5,0,3.7,0c1,0,2.1,0,3.2,0
				c2.3,0,4.6-0.2,6.9-0.6c2.3-0.4,4.5-1.1,6.6-2.2c2.1-1,3.9-2.4,5.6-4.1c1.6-1.6,3-3.5,4.1-5.5c1-2.1,1.8-4.3,2.1-6.5
				c0.4-2.3,0.6-4.6,0.6-6.9c0-1.1,0-2.1,0-3.2c0-1.2,0-2.5,0-3.8V164c0-1.3,0-2.5,0-3.8c0-1.1,0-2.1,0-3.2c0-2.3-0.3-4.6-0.6-6.9
				c-0.4-2.3-1.1-4.5-2.1-6.5c-2.1-4.1-5.5-7.5-9.6-9.6c-2.1-1-4.3-1.8-6.6-2.2c-2.3-0.4-4.6-0.6-6.9-0.6c-1,0-2.1,0-3.2,0
				C455.4,131.3,454.1,131.3,452.9,131.3L452.9,131.3z"/>
			<path d="M103.4,265.7c-1,0-2.1,0-3.1,0c-2.2,0-4.3-0.2-6.4-0.6c-2-0.3-3.9-1-5.7-1.9c-1.8-0.9-3.4-2.1-4.8-3.5
				c-1.4-1.4-2.6-3-3.5-4.8c-0.9-1.8-1.5-3.7-1.9-5.7c-0.4-2.1-0.5-4.3-0.6-6.4c0-0.7-0.1-3.1-0.1-3.1v-79.4c0,0,0-2.4,0.1-3.1
				c0-2.2,0.2-4.3,0.6-6.4c0.3-2,1-3.9,1.9-5.7c0.9-1.8,2.1-3.4,3.5-4.8c1.4-1.4,3-2.6,4.8-3.5c1.8-0.9,3.7-1.5,5.7-1.9
				c2.1-0.3,4.3-0.5,6.4-0.6l3.1,0h353.3l3.1,0c2.1,0,4.3,0.2,6.4,0.6c2,0.3,3.9,1,5.7,1.9c3.6,1.8,6.5,4.7,8.3,8.3
				c0.9,1.8,1.5,3.7,1.8,5.7c0.4,2.1,0.6,4.3,0.6,6.5c0,1,0,2,0,3.1c0,1.3,0,2.5,0,3.8V236c0,1.2,0,2.5,0,3.7c0,1.1,0,2.1,0,3.2
				c0,2.1-0.2,4.3-0.6,6.4c-0.3,2-0.9,3.9-1.9,5.7c-0.9,1.8-2.1,3.4-3.5,4.8c-1.4,1.4-3,2.6-4.8,3.5c-1.8,0.9-3.7,1.6-5.7,1.9
				c-2.1,0.3-4.3,0.5-6.4,0.6c-1,0-2.1,0-3.1,0l-3.7,0L103.4,265.7z"/>
		</g>
		<g id="_Group_">
			<g id="_Group_2">
				<g id="_Group_3">
					<path id="_Path_" class="st1" d="M159.5,201c0.1-5.8,3.1-11.2,8.1-14.3c-3.1-4.5-8.2-7.2-13.7-7.4c-5.8-0.6-11.4,3.5-14.3,3.5
						c-3,0-7.5-3.4-12.4-3.3c-6.4,0.2-12.3,3.8-15.4,9.4c-6.6,11.5-1.7,28.4,4.7,37.7c3.2,4.6,6.9,9.6,11.8,9.5
						c4.8-0.2,6.5-3,12.3-3c5.7,0,7.4,3,12.3,2.9c5.1-0.1,8.3-4.6,11.4-9.2c2.3-3.2,4.1-6.8,5.2-10.6
						C163.4,213.6,159.5,207.6,159.5,201z"/>
					<path id="_Path_2" class="st1" d="M150.1,173.2c2.8-3.3,4.2-7.7,3.8-12c-4.3,0.4-8.2,2.5-11,5.7c-2.8,3.2-4.2,7.3-3.9,11.6
						C143.3,178.5,147.4,176.6,150.1,173.2z"/>
				</g>
			</g>
			<g>
				<path class="st1" d="M219.7,224.5h-16.3l-3.9,11.5h-6.9l15.4-42.7h7.2l15.4,42.7h-7L219.7,224.5z M205.2,219.2h12.9l-6.4-18.7
					h-0.2L205.2,219.2z"/>
				<path class="st1" d="M263.9,220.5c0,9.7-5.2,15.9-13,15.9c-4,0.2-7.8-1.9-9.8-5.4H241v15.4h-6.4V205h6.2v5.2h0.1
					c2-3.5,5.8-5.6,9.9-5.5C258.7,204.6,263.9,210.9,263.9,220.5z M257.4,220.5c0-6.3-3.3-10.4-8.2-10.4c-4.9,0-8.2,4.2-8.2,10.4
					c0,6.3,3.3,10.5,8.2,10.5C254.1,231,257.4,226.9,257.4,220.5z"/>
				<path class="st1" d="M298.2,220.5c0,9.7-5.2,15.9-13,15.9c-4,0.2-7.8-1.9-9.8-5.4h-0.1v15.4h-6.4V205h6.2v5.2h0.1
					c2-3.5,5.8-5.6,9.9-5.5C293,204.6,298.2,210.9,298.2,220.5z M291.6,220.5c0-6.3-3.3-10.4-8.2-10.4c-4.9,0-8.2,4.2-8.2,10.4
					c0,6.3,3.3,10.5,8.2,10.5C288.4,231,291.6,226.9,291.6,220.5L291.6,220.5z"/>
				<path class="st1" d="M320.8,224.2c0.5,4.2,4.6,7,10.2,7c5.4,0,9.3-2.8,9.3-6.6c0-3.3-2.3-5.3-7.9-6.7l-5.5-1.3
					c-7.8-1.9-11.5-5.6-11.5-11.5c0-7.4,6.4-12.4,15.5-12.4c9,0,15.2,5.1,15.4,12.4h-6.4c-0.4-4.3-3.9-6.8-9.1-6.8
					c-5.1,0-8.7,2.6-8.7,6.4c0,3,2.2,4.8,7.8,6.2l4.7,1.2c8.8,2.1,12.4,5.6,12.4,11.8c0,8-6.4,13-16.5,13c-9.5,0-15.9-4.9-16.3-12.6
					L320.8,224.2z"/>
				<path class="st1" d="M360.8,197.6v7.4h5.9v5.1h-5.9v17.2c0,2.7,1.2,3.9,3.8,3.9c0.7,0,1.4-0.1,2.1-0.1v5
					c-1.2,0.2-2.4,0.3-3.5,0.3c-6.3,0-8.8-2.4-8.8-8.4V210h-4.5V205h4.5v-7.4H360.8z"/>
				<path class="st1" d="M370.2,220.5c0-9.8,5.8-15.9,14.8-15.9c9,0,14.8,6.2,14.8,15.9c0,9.8-5.7,15.9-14.8,15.9
					C375.9,236.5,370.2,230.3,370.2,220.5z M393.2,220.5c0-6.7-3.1-10.7-8.3-10.7c-5.2,0-8.3,4-8.3,10.7c0,6.7,3.1,10.7,8.3,10.7
					C390.1,231.2,393.2,227.3,393.2,220.5L393.2,220.5z"/>
				<path class="st1" d="M405,205h6.1v5.3h0.1c0.8-3.4,4-5.8,7.5-5.6c0.7,0,1.5,0.1,2.2,0.2v6c-0.9-0.3-1.9-0.4-2.9-0.4
					c-3.6-0.1-6.5,2.6-6.7,6.2c0,0.3,0,0.7,0,1v18.5H405L405,205z"/>
				<path class="st1" d="M450.3,226.9c-0.9,5.6-6.4,9.5-13.4,9.5c-9.1,0-14.7-6.1-14.7-15.8c0-9.8,5.6-16.1,14.4-16.1
					c8.6,0,14,5.9,14,15.4v2.2h-22v0.4c-0.4,4.5,2.9,8.4,7.4,8.8c0.3,0,0.7,0,1,0c3.1,0.3,6-1.5,7.2-4.4L450.3,226.9z M428.7,217.7
					h15.6c0.2-4.1-2.9-7.7-7.1-7.9c-0.2,0-0.4,0-0.6,0C432.3,209.7,428.8,213.2,428.7,217.7C428.7,217.6,428.7,217.6,428.7,217.7z"
					/>
			</g>
		</g>
	</g>
	<g id="_Group_4">
		<g>
			<path class="st1" d="M204.4,161.3c5-0.4,9.3,3.4,9.7,8.4c0,0.6,0,1.2,0,1.8c0,6.6-3.5,10.3-9.7,10.3h-7.4v-20.5H204.4z
				 M200.1,178.9h3.9c3.6,0.2,6.6-2.5,6.8-6.1c0-0.4,0-0.9-0.1-1.3c0.5-3.5-2-6.8-5.5-7.3c-0.4-0.1-0.8-0.1-1.2-0.1h-3.9V178.9z"/>
			<path class="st1" d="M217.6,174c-0.4-4,2.6-7.6,6.6-8c4-0.4,7.6,2.6,8,6.6c0,0.5,0,0.9,0,1.4c0.4,4-2.6,7.6-6.6,8s-7.6-2.6-8-6.6
				C217.6,175,217.6,174.5,217.6,174z M229.1,174c0-3.4-1.5-5.3-4.2-5.3c-2.7,0-4.1,2-4.1,5.3c0,3.4,1.5,5.3,4.1,5.3
				C227.6,179.4,229.1,177.4,229.1,174L229.1,174z"/>
			<path class="st1" d="M251.6,181.8h-3.2l-3.2-11.4H245l-3.2,11.4h-3.1l-4.3-15.5h3.1l2.8,11.8h0.2l3.2-11.8h2.9l3.2,11.8h0.2
				l2.8-11.8h3.1L251.6,181.8z"/>
			<path class="st1" d="M259.4,166.3h2.9v2.5h0.2c0.8-1.8,2.6-2.9,4.6-2.8c2.8-0.2,5.2,1.9,5.4,4.6c0,0.4,0,0.7,0,1.1v10h-3.1v-9.3
				c0-2.5-1.1-3.7-3.3-3.7c-2-0.1-3.6,1.4-3.7,3.4c0,0.2,0,0.4,0,0.5v9.1h-3.1L259.4,166.3z"/>
			<path class="st1" d="M277.5,160.3h3.1v21.5h-3.1V160.3z"/>
			<path class="st1" d="M284.8,174c-0.4-4,2.6-7.6,6.6-8c4-0.4,7.6,2.6,8,6.6c0,0.5,0,0.9,0,1.4c0.4,4-2.6,7.6-6.6,8
				c-4,0.4-7.6-2.6-8-6.6C284.7,175,284.7,174.5,284.8,174z M296.2,174c0-3.4-1.5-5.3-4.2-5.3c-2.7,0-4.1,2-4.1,5.3
				c0,3.4,1.5,5.3,4.1,5.3C294.7,179.4,296.2,177.4,296.2,174z"/>
			<path class="st1" d="M302.6,177.4c0-2.8,2.1-4.4,5.8-4.6l4.2-0.2v-1.3c0-1.6-1.1-2.6-3.2-2.6c-1.7,0-2.9,0.6-3.2,1.7h-3
				c0.3-2.7,2.8-4.4,6.3-4.4c3.9,0,6.1,1.9,6.1,5.2v10.6h-2.9v-2.2h-0.2c-1,1.6-2.8,2.5-4.6,2.4c-2.6,0.3-4.9-1.6-5.1-4.2
				C302.6,177.7,302.6,177.6,302.6,177.4z M312.5,176.1v-1.3l-3.8,0.2c-2.1,0.1-3.1,0.9-3.1,2.2c0,1.4,1.2,2.2,2.9,2.2
				c2,0.2,3.8-1.3,4-3.3C312.5,176.2,312.5,176.1,312.5,176.1z"/>
			<path class="st1" d="M319.6,174c0-4.9,2.5-8,6.4-8c2-0.1,3.8,1,4.7,2.7h0.2v-8.5h3.1v21.5h-2.9v-2.4h-0.2c-1,1.7-2.9,2.8-4.9,2.7
				C322.1,182,319.6,178.9,319.6,174z M322.7,174c0,3.3,1.5,5.3,4.1,5.3c2.6,0,4.2-2,4.2-5.2c0-3.2-1.6-5.3-4.2-5.3
				C324.3,168.8,322.7,170.8,322.7,174L322.7,174z"/>
			<path class="st1" d="M346.7,174c-0.4-4,2.6-7.6,6.6-8c4-0.4,7.6,2.6,8,6.6c0,0.5,0,0.9,0,1.4c0.4,4-2.6,7.6-6.6,8s-7.6-2.6-8-6.6
				C346.6,175,346.6,174.5,346.7,174z M358.1,174c0-3.4-1.5-5.3-4.2-5.3c-2.7,0-4.1,2-4.1,5.3c0,3.4,1.5,5.3,4.1,5.3
				C356.6,179.4,358.1,177.4,358.1,174z"/>
			<path class="st1" d="M365.4,166.3h2.9v2.5h0.2c0.8-1.8,2.6-2.9,4.6-2.8c2.8-0.2,5.2,1.9,5.4,4.6c0,0.4,0,0.7,0,1.1v10h-3.1v-9.3
				c0-2.5-1.1-3.7-3.3-3.7c-2-0.1-3.6,1.4-3.7,3.4c0,0.2,0,0.4,0,0.5v9.1h-3.1V166.3z"/>
			<path class="st1" d="M395.8,162.4v3.9h3.4v2.6h-3.4v8c0,1.6,0.7,2.3,2.2,2.3c0.4,0,0.8,0,1.2-0.1v2.5c-0.5,0.1-1.1,0.2-1.7,0.2
				c-3.4,0-4.7-1.2-4.7-4.2v-8.7h-2.5v-2.6h2.5v-3.9H395.8z"/>
			<path class="st1" d="M403.3,160.3h3v8.5h0.2c0.8-1.8,2.7-2.9,4.7-2.8c2.8-0.2,5.2,2,5.4,4.8c0,0.3,0,0.6,0,1v10h-3.1v-9.2
				c0-2.5-1.2-3.7-3.3-3.7c-2-0.2-3.7,1.3-3.9,3.3c0,0.2,0,0.4,0,0.6v9h-3.1L403.3,160.3z"/>
			<path class="st1" d="M434.4,177.6c-0.9,2.9-3.7,4.8-6.7,4.5c-3.9,0.1-7.1-3-7.2-6.8c0-0.4,0-0.8,0.1-1.1c-0.5-3.9,2.2-7.5,6.1-8
				c0.3,0,0.7-0.1,1-0.1c4.3,0,6.9,2.9,6.9,7.8v1.1h-10.9v0.2c-0.2,2.3,1.5,4.2,3.7,4.4c0.1,0,0.3,0,0.4,0c1.5,0.2,2.9-0.6,3.7-1.9
				L434.4,177.6z M423.7,172.6h7.8c0.2-2.1-1.4-3.8-3.4-4c-0.1,0-0.2,0-0.4,0c-2.2,0-4,1.7-4,3.9
				C423.7,172.5,423.7,172.6,423.7,172.6L423.7,172.6z"/>
		</g>
	</g>
</g>
</svg>
