<?xml version="1.0" encoding="utf-8"?>
<!-- Generator: Adobe Illustrator 26.0.3, SVG Export Plug-In . SVG Version: 6.00 Build 0)  -->
<svg version="1.0" id="artwork" xmlns="http://www.w3.org/2000/svg" xmlns:xlink="http://www.w3.org/1999/xlink" x="0px" y="0px"
	 viewBox="0 0 176 129.3" style="enable-background:new 0 0 176 129.3;" xml:space="preserve">
<style type="text/css">
	.Graphic_x0020_Style_x0020_2{fill:url(#SVGID_1_);}
	.st0{fill:#FFFFFF;fill-opacity:0;}
	.st1{fill:#A7A6A6;}
	.st2{fill:#FFFFFF;stroke:#FFFFFF;stroke-width:0.2;stroke-miterlimit:10;}
	.st3{fill:#FFFFFF;}
	.st4{fill:#5BC9F4;}
	.st5{fill:url(#SVGID_00000010284561208409432290000018445486311803929264_);}
	.st6{fill:url(#SVGID_00000035494344890205552710000016188396416819091854_);}
	.st7{fill:url(#SVGID_00000055702495713210315190000000276599426760468127_);}
</style>
<linearGradient id="SVGID_1_" gradientUnits="userSpaceOnUse" x1="10.5" y1="4.6667" x2="9.7929" y2="5.3738">
	<stop  offset="0" style="stop-color:#EF4547"/>
	<stop  offset="1" style="stop-color:#C6186D"/>
</linearGradient>
<g>
	<rect x="10.5" y="34.7" class="st0" width="155" height="60"/>
	<g>
		<path d="M150.5,84.7h-125c-2.8,0-5-2.2-5-5v-30c0-2.8,2.2-5,5-5h125c2.8,0,5,2.2,5,5v30C155.5,82.4,153.3,84.7,150.5,84.7z"/>
	</g>
	<g>
		<g>
			<path class="st1" d="M150.5,45.5c2.3,0,4.2,1.9,4.2,4.2v30c0,2.3-1.9,4.2-4.2,4.2h-125c-2.3,0-4.2-1.9-4.2-4.2v-30
				c0-2.3,1.9-4.2,4.2-4.2H150.5 M150.5,44.7h-125c-2.8,0-5,2.2-5,5v30c0,2.8,2.2,5,5,5h125c2.8,0,5-2.2,5-5v-30
				C155.5,46.9,153.3,44.7,150.5,44.7L150.5,44.7z"/>
		</g>
	</g>
	<g>
		<path class="st2" d="M67.9,54.9c0,0.8-0.2,1.5-0.7,2c-0.6,0.6-1.3,0.9-2.2,0.9c-0.9,0-1.6-0.3-2.2-0.9c-0.6-0.6-0.9-1.3-0.9-2.2
			c0-0.9,0.3-1.6,0.9-2.2c0.6-0.6,1.3-0.9,2.2-0.9c0.4,0,0.8,0.1,1.2,0.3c0.4,0.2,0.7,0.4,0.9,0.7L66.6,53c-0.4-0.5-0.9-0.7-1.6-0.7
			c-0.6,0-1.2,0.2-1.6,0.7c-0.5,0.4-0.7,1-0.7,1.7c0,0.7,0.2,1.3,0.7,1.7c0.5,0.4,1,0.7,1.6,0.7c0.7,0,1.2-0.2,1.7-0.7
			c0.3-0.3,0.5-0.7,0.5-1.2H65v-0.7h2.9C67.9,54.6,67.9,54.8,67.9,54.9z"/>
		<path class="st2" d="M72.5,52.4h-2.7v1.9h2.5V55h-2.5v1.9h2.7v0.7H69v-6h3.5V52.4z"/>
		<path class="st2" d="M75.8,57.7H75v-5.3h-1.7v-0.7h4.1v0.7h-1.7V57.7z"/>
		<path class="st2" d="M80.4,57.7v-6h0.8v6H80.4z"/>
		<path class="st2" d="M84.6,57.7h-0.8v-5.3h-1.7v-0.7h4.1v0.7h-1.7V57.7z"/>
		<path class="st2" d="M94.1,56.9c-0.6,0.6-1.3,0.9-2.2,0.9c-0.9,0-1.6-0.3-2.2-0.9c-0.6-0.6-0.9-1.3-0.9-2.2c0-0.9,0.3-1.6,0.9-2.2
			c0.6-0.6,1.3-0.9,2.2-0.9c0.9,0,1.6,0.3,2.2,0.9c0.6,0.6,0.9,1.3,0.9,2.2C95,55.5,94.7,56.3,94.1,56.9z M90.3,56.4
			c0.4,0.4,1,0.7,1.6,0.7s1.2-0.2,1.6-0.7c0.4-0.4,0.7-1,0.7-1.7s-0.2-1.3-0.7-1.7c-0.4-0.4-1-0.7-1.6-0.7s-1.2,0.2-1.6,0.7
			c-0.4,0.4-0.7,1-0.7,1.7S89.8,55.9,90.3,56.4z"/>
		<path class="st2" d="M96.1,57.7v-6H97l2.9,4.7h0l0-1.2v-3.5h0.8v6h-0.8l-3.1-4.9h0l0,1.2v3.7H96.1z"/>
	</g>
	<path class="st3" d="M88.6,66.4c-2.4,0-4.3,1.8-4.3,4.3c0,2.4,1.9,4.3,4.3,4.3c2.4,0,4.3-1.8,4.3-4.3C92.9,68.2,91,66.4,88.6,66.4z
		 M88.6,73.2c-1.3,0-2.4-1.1-2.4-2.6c0-1.5,1.1-2.6,2.4-2.6c1.3,0,2.4,1,2.4,2.6C91,72.2,89.9,73.2,88.6,73.2z M79.3,66.4
		c-2.4,0-4.3,1.8-4.3,4.3c0,2.4,1.9,4.3,4.3,4.3c2.4,0,4.3-1.8,4.3-4.3C83.6,68.2,81.7,66.4,79.3,66.4z M79.3,73.2
		c-1.3,0-2.4-1.1-2.4-2.6c0-1.5,1.1-2.6,2.4-2.6c1.3,0,2.4,1,2.4,2.6C81.7,72.2,80.6,73.2,79.3,73.2z M68.2,67.7v1.8h4.3
		c-0.1,1-0.5,1.8-1,2.3c-0.6,0.6-1.6,1.3-3.3,1.3c-2.7,0-4.7-2.1-4.7-4.8s2.1-4.8,4.7-4.8c1.4,0,2.5,0.6,3.3,1.3l1.3-1.3
		c-1.1-1-2.5-1.8-4.5-1.8c-3.6,0-6.7,3-6.7,6.6c0,3.6,3.1,6.6,6.7,6.6c2,0,3.4-0.6,4.6-1.9c1.2-1.2,1.6-2.9,1.6-4.2
		c0-0.4,0-0.8-0.1-1.1H68.2z M113.6,69.1c-0.4-1-1.4-2.7-3.6-2.7c-2.2,0-4,1.7-4,4.3c0,2.4,1.8,4.3,4.2,4.3c1.9,0,3.1-1.2,3.5-1.9
		l-1.4-1c-0.5,0.7-1.1,1.2-2.1,1.2c-1,0-1.6-0.4-2.1-1.3l5.7-2.4L113.6,69.1z M107.8,70.5c0-1.6,1.3-2.5,2.2-2.5
		c0.7,0,1.4,0.4,1.6,0.9L107.8,70.5z M103.1,74.7h1.9V62.2h-1.9V74.7z M100.1,67.4L100.1,67.4c-0.5-0.5-1.3-1-2.3-1
		c-2.1,0-4.1,1.9-4.1,4.3c0,2.4,1.9,4.2,4.1,4.2c1,0,1.8-0.5,2.2-1h0.1v0.6c0,1.6-0.9,2.5-2.3,2.5c-1.1,0-1.9-0.8-2.1-1.5L94,76.2
		c0.5,1.1,1.7,2.5,3.8,2.5c2.2,0,4-1.3,4-4.4v-7.6h-1.8V67.4z M97.9,73.2c-1.3,0-2.4-1.1-2.4-2.6c0-1.5,1.1-2.6,2.4-2.6
		c1.3,0,2.3,1.1,2.3,2.6C100.2,72.2,99.2,73.2,97.9,73.2z M122.3,62.2h-4.5v12.5h1.9v-4.7h2.6c2.1,0,4.1-1.5,4.1-3.9
		S124.4,62.2,122.3,62.2z M122.4,68.2h-2.7v-4.3h2.7c1.4,0,2.2,1.2,2.2,2.1C124.5,67,123.7,68.2,122.4,68.2z M133.9,66.4
		c-1.4,0-2.8,0.6-3.3,1.9l1.7,0.7c0.4-0.7,1-0.9,1.7-0.9c1,0,1.9,0.6,2,1.6v0.1c-0.3-0.2-1.1-0.5-1.9-0.5c-1.8,0-3.6,1-3.6,2.8
		c0,1.7,1.5,2.8,3.1,2.8c1.3,0,1.9-0.6,2.4-1.2h0.1v1h1.8v-4.8C137.7,67.6,136,66.4,133.9,66.4z M133.7,73.2c-0.6,0-1.5-0.3-1.5-1.1
		c0-1,1.1-1.3,2-1.3c0.8,0,1.2,0.2,1.7,0.4C135.7,72.4,134.7,73.2,133.7,73.2z M144.2,66.7l-2.1,5.4H142l-2.2-5.4h-2l3.3,7.6
		l-1.9,4.2h1.9l5.1-11.8H144.2z M127.4,74.7h1.9V62.2h-1.9V74.7z"/>
	<g>
		<g>
			<g>
				<path class="st4" d="M30.9,52.2c-0.3,0.3-0.5,0.8-0.5,1.4v22.1c0,0.6,0.2,1.1,0.5,1.4l0.1,0.1l12.4-12.4v-0.1v-0.1L30.9,52.2
					L30.9,52.2z"/>
				
					<linearGradient id="SVGID_00000037689929268627592320000007516604546183594683_" gradientUnits="userSpaceOnUse" x1="51.5888" y1="64.667" x2="27.412" y2="64.667">
					<stop  offset="0" style="stop-color:#FEE000"/>
					<stop  offset="0.1941" style="stop-color:#FCCF0B"/>
					<stop  offset="0.5469" style="stop-color:#FAB318"/>
					<stop  offset="0.8279" style="stop-color:#F9A21B"/>
					<stop  offset="1" style="stop-color:#F99B1C"/>
				</linearGradient>
				<path style="fill:url(#SVGID_00000037689929268627592320000007516604546183594683_);" d="M47.5,68.9l-4.1-4.1v-0.1v-0.1l4.1-4.1
					l0.1,0.1l4.9,2.8c1.4,0.8,1.4,2.1,0,2.9L47.5,68.9L47.5,68.9z"/>
				
					<linearGradient id="SVGID_00000041271852531282357760000008675388447224971409_" gradientUnits="userSpaceOnUse" x1="45.3146" y1="66.9598" x2="22.5751" y2="89.6993">
					<stop  offset="0" style="stop-color:#EF4547"/>
					<stop  offset="1" style="stop-color:#C6186D"/>
				</linearGradient>
				<path style="fill:url(#SVGID_00000041271852531282357760000008675388447224971409_);" d="M47.6,68.9l-4.2-4.2L30.9,77.1
					c0.5,0.5,1.2,0.5,2.1,0.1L47.6,68.9"/>
				
					<linearGradient id="SVGID_00000128474159476555830800000013815443439297779894_" gradientUnits="userSpaceOnUse" x1="22.4738" y1="39.5326" x2="41.04" y2="58.0987">
					<stop  offset="0" style="stop-color:#279E6F"/>
					<stop  offset="0.3168" style="stop-color:#4DAB6D"/>
					<stop  offset="0.7398" style="stop-color:#6ABA6A"/>
					<stop  offset="1" style="stop-color:#74C169"/>
				</linearGradient>
				<path style="fill:url(#SVGID_00000128474159476555830800000013815443439297779894_);" d="M47.6,60.4L33,52.2
					c-0.9-0.5-1.6-0.4-2.1,0.1l12.5,12.5L47.6,60.4z"/>
			</g>
		</g>
	</g>
</g>
</svg>
